<svg width="117" height="72" viewBox="0 0 117 72" fill="none" xmlns="http://www.w3.org/2000/svg">
<path fill-rule="evenodd" clip-rule="evenodd" d="M81.6702 29.1411C78.8326 29.1411 76.5321 26.8406 76.5321 24.003C76.5321 21.1653 78.8326 18.8648 81.6702 18.8648C84.5078 18.8648 86.8083 21.1653 86.8083 24.003C86.8083 26.8406 84.5078 29.1411 81.6702 29.1411ZM67.9685 49.6936C65.1309 49.6936 62.8304 47.3931 62.8304 44.5555C62.8304 41.7179 65.1309 39.4174 67.9685 39.4174C70.8061 39.4174 73.1066 41.7179 73.1066 44.5555C73.1066 47.3931 70.8061 49.6936 67.9685 49.6936ZM57.6922 29.1411C54.8546 29.1411 52.5541 26.8406 52.5541 24.003C52.5541 21.1653 54.8546 18.8648 57.6922 18.8648C60.5298 18.8648 62.8304 21.1653 62.8304 24.003C62.8304 26.8406 60.5298 29.1411 57.6922 29.1411ZM47.416 49.6936C44.5783 49.6936 42.2778 47.3931 42.2778 44.5555C42.2778 41.7179 44.5783 39.4174 47.416 39.4174C50.2536 39.4174 52.5541 41.7179 52.5541 44.5555C52.5541 47.3931 50.2536 49.6936 47.416 49.6936ZM33.7143 29.1411C30.8766 29.1411 28.5761 26.8406 28.5761 24.003C28.5761 21.1653 30.8766 18.8648 33.7143 18.8648C36.5519 18.8648 38.8524 21.1653 38.8524 24.003C38.8524 26.8406 36.5519 29.1411 33.7143 29.1411ZM13.6944 10.6188L39.8495 61.2908H75.5353L101.69 10.6188H13.6944Z" fill="white"/>
<path fill-rule="evenodd" clip-rule="evenodd" d="M114.512 2.80762C113.58 1.27679 111.917 0.342682 110.124 0.342682H5.25982C3.46764 0.342682 1.80459 1.27679 0.871852 2.80762C-0.0605482 4.33844 -0.128029 6.24469 0.694072 7.83751L28.3102 61.3402H87.0743L114.69 7.83751C115.512 6.24469 115.445 4.33844 114.512 2.80762Z" fill="black"/>
<path fill-rule="evenodd" clip-rule="evenodd" d="M39.8494 61.2909L13.6942 10.6189H101.69L75.5351 61.2909H39.8494Z" fill="white"/>
<mask id="mask0" mask-type="alpha" maskUnits="userSpaceOnUse" x="13" y="10" width="89" height="52">
<path fill-rule="evenodd" clip-rule="evenodd" d="M39.8494 61.2909L13.6942 10.6189H101.69L75.5351 61.2909H39.8494Z" fill="white"/>
</mask>
<g mask="url(#mask0)">
<rect x="9.75606" y="10.2908" width="93.3169" height="51" fill="white"/>
</g>
<path fill-rule="evenodd" clip-rule="evenodd" d="M47.416 39.4174C44.5783 39.4174 42.2778 41.7179 42.2778 44.5555C42.2778 47.3931 44.5783 49.6936 47.416 49.6936C50.2536 49.6936 52.5541 47.3931 52.5541 44.5555C52.5541 41.7179 50.2536 39.4174 47.416 39.4174Z" fill="black"/>
<path fill-rule="evenodd" clip-rule="evenodd" d="M67.9685 39.4174C65.1309 39.4174 62.8304 41.7179 62.8304 44.5555C62.8304 47.3931 65.1309 49.6936 67.9685 49.6936C70.8061 49.6936 73.1066 47.3931 73.1066 44.5555C73.1066 41.7179 70.8061 39.4174 67.9685 39.4174Z" fill="black"/>
<path fill-rule="evenodd" clip-rule="evenodd" d="M57.6922 18.8648C54.8546 18.8648 52.5541 21.1653 52.5541 24.003C52.5541 26.8406 54.8546 29.1411 57.6922 29.1411C60.5298 29.1411 62.8304 26.8406 62.8304 24.003C62.8304 21.1653 60.5298 18.8648 57.6922 18.8648Z" fill="black"/>
<path fill-rule="evenodd" clip-rule="evenodd" d="M81.6702 18.8648C78.8326 18.8648 76.532 21.1653 76.532 24.003C76.532 26.8406 78.8326 29.1411 81.6702 29.1411C84.5078 29.1411 86.8083 26.8406 86.8083 24.003C86.8083 21.1653 84.5078 18.8648 81.6702 18.8648Z" fill="black"/>
<path fill-rule="evenodd" clip-rule="evenodd" d="M33.7143 18.8648C30.8766 18.8648 28.5761 21.1653 28.5761 24.003C28.5761 26.8406 30.8766 29.1411 33.7143 29.1411C36.5519 29.1411 38.8524 26.8406 38.8524 24.003C38.8524 21.1653 36.5519 18.8648 33.7143 18.8648Z" fill="black"/>
<path fill-rule="evenodd" clip-rule="evenodd" d="M28.3104 61.3401H17.4497C14.6121 61.3401 12.3116 63.6406 12.3116 66.4782C12.3116 69.3158 14.6121 71.6163 17.4497 71.6163H97.9348C100.772 71.6163 103.073 69.3158 103.073 66.4782C103.073 63.6406 100.772 61.3401 97.9348 61.3401H87.0742H28.3104Z" fill="black"/>
</svg>
